<svg xmlns="http://www.w3.org/2000/svg" viewBox="0 0 320 220" width="320" height="220">
  <rect width="320" height="220" fill="#d9d3e0"/>
  <ellipse cx="160" cy="185" rx="80" ry="26" fill="#b3a9c0"/>
  <path d="M110 90l-14-30 34 14z" fill="#3a3340"/>
  <path d="M210 90l14-30-34 14z" fill="#3a3340"/>
  <circle cx="160" cy="120" r="62" fill="#40394a"/>
  <path d="M120 110q8-16 20 0" stroke="#211d29" stroke-width="4" fill="none"/>
  <path d="M180 110q12-16 20 0" stroke="#211d29" stroke-width="4" fill="none"/>
  <circle cx="140" cy="118" r="8" fill="#ffd54a"/>
  <circle cx="180" cy="118" r="8" fill="#ffd54a"/>
  <circle cx="140" cy="118" r="3" fill="#2c2420"/>
  <circle cx="180" cy="118" r="3" fill="#2c2420"/>
  <path d="M155 138l5 6 5-6z" fill="#e88fa0"/>
  <path d="M160 144v8" stroke="#e88fa0" stroke-width="2"/>
  <path d="M130 150l-30 6M130 156l-30 0M190 150l30 6M190 156l30 0" stroke="#cbb7d6" stroke-width="2"/>
</svg>
